<mxfile host="Electron" modified="2023-08-27T14:46:49.311Z" agent="Mozilla/5.0 (X11; Linux x86_64) AppleWebKit/537.36 (KHTML, like Gecko) draw.io/21.6.1 Chrome/112.0.5615.204 Electron/24.6.1 Safari/537.36" etag="2Qx6UiKiQoJSu4YbI0Uo" version="21.6.1" type="device">
  <diagram name="Page-1" id="C_TBe_gx2q9Ml_p4POoI">
    <mxGraphModel dx="1504" dy="925" grid="1" gridSize="10" guides="1" tooltips="1" connect="1" arrows="1" fold="1" page="1" pageScale="1" pageWidth="850" pageHeight="1100" math="0" shadow="0">
      <root>
        <mxCell id="0" />
        <mxCell id="1" parent="0" />
      </root>
    </mxGraphModel>
  </diagram>
</mxfile>
